<svg xmlns="http://www.w3.org/2000/svg" width="1024" height="1024" viewBox="0 0 1024 1024"
  fill="none">
  <path
    d="M512 1024C794.77 1024 1024 794.77 1024 512C1024 229.23 794.77 0 512 0C229.23 0 0 229.23 0 512C0 794.77 229.23 1024 512 1024Z"
    fill="#111111" />
  <path
    d="M633.417 430.521C629.215 417.337 623.564 405.528 616.465 395.097C609.51 384.52 601.18 375.537 591.472 368.148C581.765 360.614 570.681 354.891 558.221 350.979C545.905 347.067 532.359 345.111 517.58 345.111C492.515 345.111 469.912 351.558 449.773 364.453C429.634 377.348 413.697 396.256 401.961 421.176C390.37 445.952 384.574 476.305 384.574 512.237C384.574 548.314 390.442 578.813 402.178 603.733C413.914 628.653 429.996 647.561 450.425 660.456C470.854 673.351 494.109 679.798 520.188 679.798C544.384 679.798 565.465 674.872 583.431 665.02C601.542 655.168 615.523 641.259 625.376 623.293C635.373 605.182 640.371 583.884 640.371 559.398L657.758 562.658H530.403V507.239H705.353V557.876C705.353 595.257 697.384 627.712 681.447 655.24C665.654 682.624 643.776 703.777 615.813 718.7C587.995 733.624 556.12 741.085 520.188 741.085C479.91 741.085 444.557 731.813 414.131 713.267C383.85 694.722 360.234 668.425 343.282 634.376C326.33 600.183 317.854 559.615 317.854 512.672C317.854 477.175 322.78 445.3 332.633 417.047C342.485 388.794 356.322 364.815 374.143 345.111C392.109 325.261 413.189 310.121 437.385 299.689C461.726 289.112 488.313 283.824 517.145 283.824C541.197 283.824 563.582 287.374 584.3 294.473C605.164 301.572 623.709 311.642 639.937 324.682C656.309 337.722 669.856 353.224 680.577 371.19C691.299 389.011 698.543 408.788 702.31 430.521H633.417Z"
    fill="#F7F4F4" />
</svg>